diff --git a/assets/images/logo.svg b/assets/images/logo.svg
new file mode 100644
index 0000000000000000000000000000000000000000..c9816c46c79ec08325962c221a7d7c4b994dbba6
--- /dev/null
+++ b/assets/images/logo.svg
@@ -0,0 +1,10 @@
+<svg width="160" height="110" viewBox="0 0 160 110" fill="none" xmlns="http://www.w3.org/2000/svg">
+  <rect width="160" height="110" rx="18" fill="#FFFFFF"/>
+  <g stroke="#234D69" stroke-width="4" stroke-linecap="round" stroke-linejoin="round">
+    <path d="M48 70c0 10 8 18 18 18h28c10 0 18-8 18-18 0-12-10-20-22-20-3 0-6 .5-9 1.5C77 44 70 40 62 40c-10 0-18 8-18 18 0 4 1 8 4 12" fill="#FEDDEA"/>
+    <circle cx="60" cy="34" r="6" fill="#FF9D00"/>
+    <circle cx="84" cy="30" r="6" fill="#FF9D00"/>
+    <circle cx="108" cy="36" r="6" fill="#FF9D00"/>
+  </g>
+  <text x="80" y="100" text-anchor="middle" font-family="Arial, sans-serif" font-size="12" font-weight="700" fill="#234D69">Bellbrook Vet</text>
+</svg>
